<?xml version="1.0" encoding="UTF-8"?>
<!DOCTYPE svg PUBLIC "-//W3C//DTD SVG 1.1//EN" "http://www.w3.org/Graphics/SVG/1.1/DTD/svg11.dtd">
<!-- Creator: CorelDRAW -->
<svg xmlns="http://www.w3.org/2000/svg" xml:space="preserve" width="1.3625in" height="0.407295in" style="shape-rendering:geometricPrecision; text-rendering:geometricPrecision; image-rendering:optimizeQuality; fill-rule:evenodd; clip-rule:evenodd"
viewBox="0 0 0.549622 0.1643"
 xmlns:xlink="http://www.w3.org/1999/xlink">
 <defs>
  <style type="text/css">
   <![CDATA[
    .str0 {stroke:#2B2A29;stroke-width:0.00392116}
    .fil0 {fill:#EF7F1A}
    .fil1 {fill:#EF7F1A;fill-rule:nonzero}
   ]]>
  </style>
 </defs>
 <g id="Layer_x0020_1">
  <metadata id="CorelCorpID_0Corel-Layer"/>
  <path class="fil0" d="M0.524448 0.0172998c0.00729123,0.0106248 0.00176127,0.0225248 -0.00711336,0.0225248 -0.0113013,0 -0.0145158,-0.0112029 -0.00941778,-0.0214687 0.012791,-0.0257583 0.00289045,-0.0209208 0.0165311,-0.00105613z"/>
  <path class="fil1 str0" d="M0.0412683 0.0716942l0 0.0401185c0,0.00274275 0.000325572,0.00530762 0.000975129,0.00768986 0.000647969,0.00238065 0.00162469,0.00465489 0.0029238,0.00682114 0.00101007,0.00173268 0.00227583,0.00306991 0.00378935,0.00400692 0.00151669,0.000938602 0.00328749,0.00162469 0.00530762,0.00205825 0.00230918,-0.000289045 0.0043325,-0.000830607 0.00606518,-0.0016231 0.00173268,-0.000795667 0.00324778,-0.0017708 0.0045469,-0.00292539 0.00173427,-0.00158816 0.00303338,-0.00397198 0.00389893,-0.0071483 0.000867134,-0.00317473 0.0013007,-0.00714671 0.0013007,-0.0119112l0 -0.0372296 -0.00463107 -1.27053e-005 1.58816e-006 -0.0262189 0.00591748 0 0.00737541 0c0.00360035,0 0.0072023,0 0.0108011,0 0.000322396,8.57605e-005 0.00955754,-0.000522504 0.00955754,0.0095496l0 0.0569434c0,0.00447543 0.000506622,0.00808531 0.00151669,0.0108297 0.00101166,0.00274275 0.00259823,0.00476447 0.00476447,0.00606518 0.00144364,0.000865546 0.0029238,0.00158657 0.00444049,0.00216466 0.00151669,0.00057809 0.00306832,0.00101166 0.00465648,0.0013007 0.00173268,-0.000289045 0.00335578,-0.000938602 0.00487247,-0.00195026 0.00151669,-0.00101007 0.00285233,-0.00223771 0.00400851,-0.00368135 0.00158657,-0.00202173 0.00277928,-0.00451513 0.00357177,-0.00747387 0.000792491,-0.00295874 0.00119271,-0.00638757 0.00119271,-0.0102865l0 -0.0370867 -0.0119985 0.000220754 4.12921e-005 -0.0260426 0.0285757 -4.92329e-005c0.0004828,6.82908e-005 0.0106708,-0.00194549 0.0106708,0.0111552l0 0.0598164 0 0.000865546 0 0.000433567 0 0.000649557 0 0.000649557c0,0.00404345 -0.000649557,0.00776133 -0.00194867,0.0111552 -0.00129911,0.00339231 -0.00324937,0.00653368 -0.0058476,0.00942095 -0.00259982,0.00274275 -0.00534415,0.00505352 -0.00822984,0.00693072 -0.00288886,0.0018772 -0.00592065,0.00332243 -0.00909697,0.0043325 -0.000433567,0.000144522 -0.000830607,0.000252517 -0.00119271,0.000325572 -0.000360512,7.14671e-005 -0.000686084,0.000177874 -0.000973541,0.000323984 -0.000433567,0 -0.000830607,3.49395e-005 -0.00119271,0.000107995 -0.000358924,7.30553e-005 -0.000757551,0.00018105 -0.00118953,0.000325572 -0.000722612,0.000142934 -0.00144522,0.000250929 -0.00216625,0.000323984 -0.000722612,7.30553e-005 -0.00144522,0.000107995 -0.00216625,0.000107995l-0.0086634 0c-0.00375441,0 -0.0071483,-0.000252517 -0.0101801,-0.000757551 -0.00303179,-0.000505034 -0.00577454,-0.00126259 -0.00822984,-0.00227424 -0.00173268,-0.00057809 -0.00343042,-0.00144522 -0.00508846,-0.00259982 -0.00166121,-0.00115459 -0.00328749,-0.00259823 -0.00487406,-0.00433091 -0.00144364,0.00129911 -0.00296033,0.00249182 -0.00454849,0.00357336 -0.00158975,0.00108471 -0.00339389,0.00205825 -0.00541562,0.0029238 -0.00231077,0.00115459 -0.00483594,0.00202173 -0.00758028,0.00259982 -0.00274275,0.000576501 -0.00563161,0.000865546 -0.0086634,0.000865546l-0.0086634 0c-0.00476606,0 -0.00899056,-0.000576501 -0.0126703,-0.00173109 -0.00368294,-0.00115618 -0.00682273,-0.00274593 -0.00942254,-0.00476606 -0.00274434,-0.00216625 -0.00508846,-0.00447543 -0.00704031,-0.00693072 -0.00194867,-0.0024537 -0.0035003,-0.00505352 -0.00465489,-0.00779627 -0.00057809,-0.00144364 -0.00111965,-0.00285233 -0.00162627,-0.00422291 -0.000503446,-0.00137217 -0.000900486,-0.00278087 -0.00118953,-0.0042245 -0.000287457,-0.00144364 -0.000505034,-0.00278087 -0.000649557,-0.00400851 -0.000142934,-0.00122606 -0.000217578,-0.00234412 -0.000217578,-0.00335578l0 -0.0440174 -0.0100689 2.69987e-005 4.76447e-006 -0.0261125 0.0298002 0c0.00920814,-0.000257282 0.00943684,0.00687355 0.00950036,0.00930184l3.17632e-006 0.0167837zm0.165653 0.0798987c-0.0150891,0 -0.0278325,-0.00476447 -0.0382286,-0.0143315 -0.0103961,-0.00952895 -0.013007,-0.0226328 -0.013007,-0.0392736 0,-0.0166407 0.00261093,-0.0297462 0.013007,-0.0392752 0.0103961,-0.00956548 0.0231395,-0.01433 0.0382286,-0.01433 0.0151606,0 0.0279039,0.00476447 0.0382635,0.01433 0.0103596,0.00952895 0.0132595,0.0229219 0.0132595,0.0395626 0,0.0164247 -0.00282851,0.0292031 -0.0130785,0.0388416 -0.0102897,0.00967347 -0.0230664,0.0144761 -0.0384445,0.0144761zm-0.000107995 -0.0253772c0.00606359,0 0.0109726,-0.00231077 0.014727,-0.00696725 0.00378935,-0.00465648 0.00566814,-0.0119477 0.00566814,-0.0218737 0,-0.00877299 -0.00184226,-0.0155957 -0.00548709,-0.0204682 -0.00368135,-0.00491059 -0.00862846,-0.00736429 -0.014908,-0.00736429 -0.013466,0 -0.0202157,0.00974653 -0.0202157,0.0292031 0,0.00794079 0.00169774,0.0145126 0.00501858,0.019709 0.00335578,0.00519963 0.00841089,0.00776133 0.0151971,0.00776133zm0.106456 0.0253772c-0.0150875,0 -0.0278309,-0.00476447 -0.038227,-0.0143315 -0.0103961,-0.00952895 -0.0155957,-0.0226328 -0.0155957,-0.0392736 0,-0.0166407 0.00519963,-0.0297462 0.0155957,-0.0392752 0.0103961,-0.00956548 0.0231395,-0.01433 0.038227,-0.01433 0.0151606,0 0.0279039,0.00476447 0.0382635,0.01433 0.0103611,0.00952895 0.0138329,0.0226344 0.0138329,0.0392752 0,0.0164231 -0.00340183,0.0294905 -0.0136518,0.039129 -0.0102881,0.00967347 -0.0230664,0.0144761 -0.0384445,0.0144761zm-0.000107995 -0.0253772c0.00606359,0 0.0109726,-0.00231077 0.0147286,-0.00696725 0.00378935,-0.00465648 0.00566655,-0.0119477 0.00566655,-0.0218737 0,-0.00877299 -0.00184226,-0.0155957 -0.0054855,-0.0204682 -0.00368294,-0.00491059 -0.00862846,-0.00736429 -0.0149096,-0.00736429 -0.013466,0 -0.0202157,0.00974653 -0.0202157,0.0292031 0,0.00794079 0.00169774,0.0145126 0.00501858,0.019709 0.00335578,0.00519963 0.00841089,0.00776133 0.0151971,0.00776133zm0.175946 -0.000505034l0 0.0235714 -0.0495267 0 0 -0.0121653c-0.00909697,0.00909697 -0.0189531,0.0136455 -0.0296001,0.0136455 -0.0127434,0 -0.0233205,-0.00519804 -0.0317314,-0.0155576 -0.00837436,-0.0103611 -0.0125623,-0.0228869 -0.0125623,-0.0376505 0,-0.0149446 0.00429597,-0.0275434 0.0128879,-0.037795 0.00859035,-0.0102531 0.0190944,-0.0153765 0.0315138,-0.0153765 0.0119112,0 0.0217657,0.00461995 0.0294921,0.0138614l0 -0.0324905 -0.0159562 0 0 -0.0235714c0.0122399,-7.30553e-005 0.0242671,-0.000142934 0.036507,-0.00021599 0.000574913,0.000998952 0.0121542,-0.000527269 0.0121542,0.0165835l0 0.107161 0.0168218 0zm-0.0492011 -0.0278309c0,-0.00978305 -0.00209478,-0.0167868 -0.00628117,-0.0209383 -0.00418797,-0.00415145 -0.00898898,-0.00624464 -0.0143331,-0.00624464 -0.0064241,0 -0.0113696,0.00249023 -0.0148715,0.00747228 -0.00346536,0.00494552 -0.00523457,0.0115157 -0.00523457,0.019601 0,0.00768986 0.00173427,0.0141521 0.00519963,0.0194216 0.00346536,0.00523457 0.00844741,0.00786932 0.015016,0.00786932 0.00541403,0 0.010215,-0.00212972 0.0143315,-0.00638916 0.00411492,-0.00426103 0.00617317,-0.0111918 0.00617317,-0.0207922zm0.0797557 -0.0507575c0.000219166,0.000106407 0.0124956,-0.00197249 0.0125528,0.0111854l0 0.0676174 0.0154464 -0.000214401 0 0.0235714 -0.0594336 0 0 -0.0235714 0.0115316 0 0 -0.0551218 -0.0119096 0 0 -0.023681 0.0318124 0.000214401"/>
  <rect class="fil0" transform="matrix(0.755501 -0.755501 0.755501 0.755501 0.244386 0.0424666)" width="0.0184877" height="0.0184877"/>
  <rect class="fil0" transform="matrix(0.755501 -0.755501 0.755501 0.755501 0.244386 0.150332)" width="0.0184877" height="0.0184877"/>
 </g>
</svg>
